<?xml version="1.0" encoding="UTF-8" standalone="no"?>
<!-- Created with Inkscape (http://www.inkscape.org/) -->

<svg
   width="705.22461"
   height="103.09569"
   viewBox="0 0 186.59067 27.277401"
   version="1.1"
   id="svg1"
   inkscape:version="1.3.2 (091e20e, 2023-11-25)"
   sodipodi:docname="logo1.svg"
   xmlns:inkscape="http://www.inkscape.org/namespaces/inkscape"
   xmlns:sodipodi="http://sodipodi.sourceforge.net/DTD/sodipodi-0.dtd"
   xmlns="http://www.w3.org/2000/svg"
   xmlns:svg="http://www.w3.org/2000/svg">
  <sodipodi:namedview
     id="namedview1"
     pagecolor="#ffffff"
     bordercolor="#000000"
     borderopacity="0.25"
     inkscape:showpageshadow="false"
     inkscape:pageopacity="0.0"
     inkscape:pagecheckerboard="0"
     inkscape:deskcolor="#ffffff"
     inkscape:document-units="px"
     inkscape:zoom="0.88254597"
     inkscape:cx="360.88772"
     inkscape:cy="64.019328"
     inkscape:window-width="1680"
     inkscape:window-height="910"
     inkscape:window-x="690"
     inkscape:window-y="170"
     inkscape:window-maximized="0"
     inkscape:current-layer="layer1" />
  <defs
     id="defs1" />
  <g
     inkscape:label="Layer 1"
     inkscape:groupmode="layer"
     id="layer1"
     transform="translate(-15.530318,-124.64872)">
    <path
       id="path18"
       style="font-size:37.4687px;line-height:0.9;font-family:'Edgecutting Lite Sharp';-inkscape-font-specification:'Edgecutting Lite Sharp';text-align:center;letter-spacing:1.20385px;text-anchor:middle;fill:#4ac9ae;fill-opacity:1;stroke-width:5.55625;stroke-linecap:round;stroke-linejoin:round"
       d="m 155.68765,124.64872 c -3.97167,0 -7.24412,1.31132 -9.81697,3.93413 -2.54787,2.59783 -3.82147,5.83256 -3.82147,9.70431 0,3.87177 1.2736,7.11923 3.82147,9.74205 2.57285,2.59782 5.8453,3.89691 9.81697,3.89691 2.52289,0 4.82089,-0.59985 6.89416,-1.79885 2.09824,-1.22397 3.73472,-2.87268 4.90874,-4.94595 l -3.3352,-1.61076 c -0.89925,1.44879 -2.11068,2.59753 -3.6344,3.44682 -1.49875,0.82431 -3.10974,1.23662 -4.8333,1.23662 -2.87259,0 -5.25826,-0.93674 -7.15667,-2.81017 -1.87343,-1.89841 -2.81016,-4.28407 -2.81016,-7.15667 0,-2.74769 0.94948,-5.09564 2.84789,-7.04401 1.89841,-1.94837 4.27133,-2.9223 7.11894,-2.9223 1.57369,0 3.04759,0.37459 4.42144,1.12396 1.39883,0.72439 2.56031,1.71107 3.48454,2.96003 l 3.22203,-2.09858 c -1.24896,-1.74854 -2.84721,-3.12203 -4.79558,-4.1212 -1.94837,-1.02414 -4.05933,-1.53634 -6.33243,-1.53634 z m -90.57638,0.56224 v 26.22786 h 3.89692 v -9.66711 h 7.343738 c 2.622806,0 4.770967,-0.72421 6.444567,-2.173 1.673601,-1.44879 2.510441,-3.48483 2.510441,-6.10764 0,-2.42297 -0.886785,-4.40855 -2.660302,-5.95725 -1.773517,-1.54871 -3.871733,-2.32286 -6.294706,-2.32286 z m 24.39696,0 v 26.22786 h 20.23287 v -3.82199 H 93.40515 v -22.40587 z m 32.07815,0 -8.39329,26.22786 h 4.27157 l 2.173,-6.5195 h 11.80289 l 2.13579,6.5195 h 4.27157 l -8.35556,-26.22786 z m 50.10546,0 v 26.22786 h 20.23288 v -3.82199 h -16.33647 v -7.86826 h 14.08854 v -3.82199 h -14.08854 v -6.89415 h 16.33647 v -3.82147 z m -46.17134,0.29972 4.68344,15.73651 h -9.36687 z m -56.51231,3.52175 h 7.343738 c 1.448788,0 2.660218,0.41231 3.634403,1.23662 0.999164,0.79933 1.498617,1.87315 1.498617,3.22202 0,1.49875 -0.487225,2.66075 -1.46141,3.48506 -0.974185,0.79934 -2.197843,1.1989 -3.67161,1.1989 H 69.00819 Z m 130.49022,17.64802 c -0.69941,0 -1.31149,0.26195 -1.83606,0.78652 -0.52456,0.49958 -0.78703,1.11167 -0.78703,1.83606 0,0.72439 0.26247,1.3487 0.78703,1.87327 0.52457,0.49958 1.13665,0.74982 1.83606,0.74982 0.69942,0 1.3115,-0.25024 1.83607,-0.74982 0.52456,-0.52457 0.78651,-1.14888 0.78651,-1.87327 0,-0.72439 -0.26195,-1.33648 -0.78651,-1.83606 -0.52457,-0.52457 -1.13665,-0.78652 -1.83607,-0.78652 z" />
    <path
       id="path12"
       style="font-size:37.4687px;line-height:0.9;font-family:'Edgecutting Lite Sharp';-inkscape-font-specification:'Edgecutting Lite Sharp';text-align:center;letter-spacing:1.20385px;text-anchor:middle;fill:#2d957f;fill-opacity:1;stroke-width:5.55625;stroke-linecap:round;stroke-linejoin:round"
       d="m 15.530318,125.21096 v 26.22786 h 3.89692 v -9.66711 h 4.721158 l 6.631637,9.66711 h 4.496366 l -6.781498,-9.77925 c 2.173183,-0.29975 3.921265,-1.16157 5.245158,-2.58537 1.323893,-1.42382 1.985925,-3.28505 1.985925,-5.58313 0,-2.42297 -0.886786,-4.40855 -2.660303,-5.95725 -1.773516,-1.54871 -3.871732,-2.32286 -6.294706,-2.32286 z m 24.39696,0 v 26.22786 h 20.23339 v -3.82199 h -16.33647 v -7.86826 h 14.088029 v -3.82199 H 43.824198 v -6.89415 h 16.33647 v -3.82147 z m -20.50004,3.82147 h 7.343737 c 1.448789,0 2.660219,0.41231 3.634404,1.23662 0.999164,0.79933 1.499133,1.87315 1.499133,3.22202 0,1.49875 -0.487224,2.66075 -1.461409,3.48506 -0.974186,0.79934 -2.19836,1.1989 -3.672128,1.1989 h -7.343737 z" />
  </g>
</svg>
